<svg width="128" height="128" viewBox="0 0 24 24" fill="none" xmlns="http://www.w3.org/2000/svg" class="injected-svg" data-src="https://cdn.hugeicons.com/icons/web-design-01-duotone-rounded.svg?v=1.0.0" xmlns:xlink="http://www.w3.org/1999/xlink" role="img" color="#000000">
<path opacity="0.4" d="M3.89177 20.1087C5.28301 21.5 7.52218 21.5 12.0005 21.5C16.4789 21.5 18.718 21.5 20.1093 20.1087C21.5005 18.7175 21.5005 16.4783 21.5005 12C21.5005 10.1509 21.403 10.1835 21.305 9H2.50089C2.40296 10.1835 2.50053 10.1509 2.50053 12C2.50053 16.4783 2.50053 18.7175 3.89177 20.1087Z" fill="#000000"></path>
<path d="M2.5 12C2.5 7.52166 2.5 5.28249 3.89124 3.89124C5.28249 2.5 7.52166 2.5 12 2.5C16.4783 2.5 18.7175 2.5 20.1088 3.89124C21.5 5.28249 21.5 7.52166 21.5 12C21.5 16.4783 21.5 18.7175 20.1088 20.1088C18.7175 21.5 16.4783 21.5 12 21.5C7.52166 21.5 5.28249 21.5 3.89124 20.1088C2.5 18.7175 2.5 16.4783 2.5 12Z" stroke="#000000" stroke-width="1.5px" fill="none"></path>
<path d="M2.5 9H21.5" stroke="#000000" stroke-width="1.5px" stroke-linejoin="round" fill="none"></path>
<path d="M13 13L17 13" stroke="#000000" stroke-width="1.5px" stroke-linecap="round" stroke-linejoin="round" fill="none"></path>
<path d="M13 17H15" stroke="#000000" stroke-width="1.5px" stroke-linecap="round" stroke-linejoin="round" fill="none"></path>
<path d="M6.99981 6H7.00879" stroke="#000000" stroke-width="1.5px" stroke-linecap="round" stroke-linejoin="round" fill="none"></path>
<path d="M10.9998 6H11.0088" stroke="#000000" stroke-width="1.5px" stroke-linecap="round" stroke-linejoin="round" fill="none"></path>
<path d="M9 9V21.5" stroke="#000000" stroke-width="1.5px" stroke-linecap="round" stroke-linejoin="round" fill="none"></path>
</svg>