<svg width="128" height="128" viewBox="0 0 24 24" fill="none" xmlns="http://www.w3.org/2000/svg" class="injected-svg" data-src="https://cdn.hugeicons.com/icons/smart-phone-01-duotone-rounded.svg?v=1.0.0" xmlns:xlink="http://www.w3.org/1999/xlink" role="img" color="#000000">
<path opacity="0.4" d="M13.5 2H10.5C8.14298 2 6.96447 2 6.23223 2.73223C5.5 3.46447 5.5 4.64298 5.5 7V17C5.5 19.357 5.5 20.5355 6.23223 21.2678C6.96447 22 8.14298 22 10.5 22H13.5C15.857 22 17.0355 22 17.7678 21.2678C18.5 20.5355 18.5 19.357 18.5 17V7C18.5 4.64298 18.5 3.46447 17.7678 2.73223C17.0355 2 15.857 2 13.5 2Z" fill="#000000"></path>
<path d="M12 19H12.01" stroke="#000000" stroke-width="1.5px" stroke-linecap="round" stroke-linejoin="round" fill="none"></path>
<path d="M13.5 2H10.5C8.14298 2 6.96447 2 6.23223 2.73223C5.5 3.46447 5.5 4.64298 5.5 7V17C5.5 19.357 5.5 20.5355 6.23223 21.2678C6.96447 22 8.14298 22 10.5 22H13.5C15.857 22 17.0355 22 17.7678 21.2678C18.5 20.5355 18.5 19.357 18.5 17V7C18.5 4.64298 18.5 3.46447 17.7678 2.73223C17.0355 2 15.857 2 13.5 2Z" stroke="#000000" stroke-width="1.5px" stroke-linecap="round" stroke-linejoin="round" fill="none"></path>
</svg>